<mxfile host="app.diagrams.net" agent="Mozilla/5.0 (Windows NT 10.0; Win64; x64) AppleWebKit/537.36 (KHTML, like Gecko) Chrome/140.0.0.0 Safari/537.36" version="28.2.5">
  <diagram name="PÃ¡gina-1" id="eYgudXlU8maGodla8dsl">
    <mxGraphModel dx="1426" dy="777" grid="1" gridSize="10" guides="1" tooltips="1" connect="1" arrows="1" fold="1" page="1" pageScale="1" pageWidth="827" pageHeight="1169" math="0" shadow="0">
      <root>
        <mxCell id="0" />
        <mxCell id="1" parent="0" />
        <mxCell id="daM6kpSMxev_B5da6zfh-1" value="Usuario" style="shape=umlActor;verticalLabelPosition=bottom;verticalAlign=top;html=1;outlineConnect=0;" vertex="1" parent="1">
          <mxGeometry x="20" y="150" width="30" height="60" as="geometry" />
        </mxCell>
        <mxCell id="daM6kpSMxev_B5da6zfh-3" value="Ingresa a la app" style="text;html=1;align=center;verticalAlign=middle;resizable=0;points=[];autosize=1;strokeColor=none;fillColor=none;" vertex="1" parent="1">
          <mxGeometry x="60" y="148" width="110" height="30" as="geometry" />
        </mxCell>
        <mxCell id="daM6kpSMxev_B5da6zfh-5" value="Servidor Web" style="shape=cube;whiteSpace=wrap;html=1;boundedLbl=1;backgroundOutline=1;darkOpacity=0.05;darkOpacity2=0.1;" vertex="1" parent="1">
          <mxGeometry x="370" y="80" width="301" height="220" as="geometry" />
        </mxCell>
        <mxCell id="daM6kpSMxev_B5da6zfh-8" value="Front-end" style="rounded=0;whiteSpace=wrap;html=1;" vertex="1" parent="1">
          <mxGeometry x="400" y="220" width="120" height="60" as="geometry" />
        </mxCell>
        <mxCell id="daM6kpSMxev_B5da6zfh-9" value="Back-end" style="rounded=0;whiteSpace=wrap;html=1;" vertex="1" parent="1">
          <mxGeometry x="530" y="220" width="120" height="60" as="geometry" />
        </mxCell>
        <mxCell id="daM6kpSMxev_B5da6zfh-11" value="Base de datos" style="shape=cube;whiteSpace=wrap;html=1;boundedLbl=1;backgroundOutline=1;darkOpacity=0.05;darkOpacity2=0.1;" vertex="1" parent="1">
          <mxGeometry x="240" y="360" width="244" height="200" as="geometry" />
        </mxCell>
        <mxCell id="daM6kpSMxev_B5da6zfh-12" value="SQLite" style="rounded=0;whiteSpace=wrap;html=1;" vertex="1" parent="1">
          <mxGeometry x="294" y="490" width="120" height="60" as="geometry" />
        </mxCell>
        <mxCell id="daM6kpSMxev_B5da6zfh-13" value="Contenedor de fotos" style="shape=cube;whiteSpace=wrap;html=1;boundedLbl=1;backgroundOutline=1;darkOpacity=0.05;darkOpacity2=0.1;" vertex="1" parent="1">
          <mxGeometry x="530" y="360" width="230" height="200" as="geometry" />
        </mxCell>
        <mxCell id="daM6kpSMxev_B5da6zfh-14" value="Supabase" style="rounded=0;whiteSpace=wrap;html=1;" vertex="1" parent="1">
          <mxGeometry x="600" y="480" width="120" height="60" as="geometry" />
        </mxCell>
        <mxCell id="daM6kpSMxev_B5da6zfh-16" value="" style="endArrow=classic;html=1;rounded=0;exitX=0.329;exitY=1.009;exitDx=0;exitDy=0;exitPerimeter=0;" edge="1" parent="1" source="daM6kpSMxev_B5da6zfh-5" target="daM6kpSMxev_B5da6zfh-11">
          <mxGeometry width="50" height="50" relative="1" as="geometry">
            <mxPoint x="350" y="410" as="sourcePoint" />
            <mxPoint x="400" y="360" as="targetPoint" />
          </mxGeometry>
        </mxCell>
        <mxCell id="daM6kpSMxev_B5da6zfh-17" value="" style="endArrow=classic;html=1;rounded=0;exitX=0.757;exitY=1.014;exitDx=0;exitDy=0;exitPerimeter=0;entryX=0;entryY=0;entryDx=105;entryDy=0;entryPerimeter=0;" edge="1" parent="1" source="daM6kpSMxev_B5da6zfh-5" target="daM6kpSMxev_B5da6zfh-13">
          <mxGeometry width="50" height="50" relative="1" as="geometry">
            <mxPoint x="350" y="410" as="sourcePoint" />
            <mxPoint x="400" y="360" as="targetPoint" />
          </mxGeometry>
        </mxCell>
        <mxCell id="daM6kpSMxev_B5da6zfh-18" value="Web Browser" style="shape=cube;whiteSpace=wrap;html=1;boundedLbl=1;backgroundOutline=1;darkOpacity=0.05;darkOpacity2=0.1;" vertex="1" parent="1">
          <mxGeometry x="200" y="140" width="120" height="80" as="geometry" />
        </mxCell>
        <mxCell id="daM6kpSMxev_B5da6zfh-20" value="" style="endArrow=none;html=1;rounded=0;exitX=0;exitY=0;exitDx=120;exitDy=50;exitPerimeter=0;" edge="1" parent="1" source="daM6kpSMxev_B5da6zfh-18" target="daM6kpSMxev_B5da6zfh-5">
          <mxGeometry width="50" height="50" relative="1" as="geometry">
            <mxPoint x="350" y="410" as="sourcePoint" />
            <mxPoint x="400" y="360" as="targetPoint" />
          </mxGeometry>
        </mxCell>
        <mxCell id="daM6kpSMxev_B5da6zfh-21" value="" style="endArrow=none;html=1;rounded=0;exitX=0.5;exitY=0.5;exitDx=0;exitDy=0;exitPerimeter=0;entryX=0.017;entryY=0.563;entryDx=0;entryDy=0;entryPerimeter=0;" edge="1" parent="1" source="daM6kpSMxev_B5da6zfh-1" target="daM6kpSMxev_B5da6zfh-18">
          <mxGeometry width="50" height="50" relative="1" as="geometry">
            <mxPoint x="350" y="410" as="sourcePoint" />
            <mxPoint x="400" y="360" as="targetPoint" />
          </mxGeometry>
        </mxCell>
      </root>
    </mxGraphModel>
  </diagram>
</mxfile>
